<mxfile host="app.diagrams.net" modified="2023-10-01T19:15:11.999Z" agent="Mozilla/5.0 (Windows NT 10.0; Win64; x64) AppleWebKit/537.36 (KHTML, like Gecko) Chrome/116.0.0.0 Safari/537.36" etag="vDfm006sZA0FloAnByrm" version="22.0.0" type="device">
  <diagram name="Page-1" id="b0bLiH0IVkeUEvsS6kF4">
    <mxGraphModel dx="2049" dy="1137" grid="1" gridSize="10" guides="1" tooltips="1" connect="1" arrows="1" fold="1" page="1" pageScale="1" pageWidth="850" pageHeight="1100" math="0" shadow="0">
      <root>
        <mxCell id="0" />
        <mxCell id="1" parent="0" />
        <mxCell id="KDnGC-0qNPyulAGDtZmc-4" value="" style="edgeStyle=orthogonalEdgeStyle;rounded=0;orthogonalLoop=1;jettySize=auto;html=1;" edge="1" parent="1" source="KDnGC-0qNPyulAGDtZmc-2" target="KDnGC-0qNPyulAGDtZmc-3">
          <mxGeometry relative="1" as="geometry">
            <Array as="points">
              <mxPoint x="532.5" y="240" />
            </Array>
          </mxGeometry>
        </mxCell>
        <mxCell id="KDnGC-0qNPyulAGDtZmc-6" value="" style="edgeStyle=orthogonalEdgeStyle;rounded=0;orthogonalLoop=1;jettySize=auto;html=1;exitX=1;exitY=0.25;exitDx=0;exitDy=0;" edge="1" parent="1" source="KDnGC-0qNPyulAGDtZmc-2" target="KDnGC-0qNPyulAGDtZmc-5">
          <mxGeometry relative="1" as="geometry" />
        </mxCell>
        <mxCell id="KDnGC-0qNPyulAGDtZmc-2" value="HOME" style="rounded=1;whiteSpace=wrap;html=1;" vertex="1" parent="1">
          <mxGeometry x="382.5" y="190" width="120" height="60" as="geometry" />
        </mxCell>
        <mxCell id="KDnGC-0qNPyulAGDtZmc-22" style="edgeStyle=orthogonalEdgeStyle;rounded=0;orthogonalLoop=1;jettySize=auto;html=1;exitX=0.5;exitY=1;exitDx=0;exitDy=0;entryX=0.5;entryY=0;entryDx=0;entryDy=0;" edge="1" parent="1" source="KDnGC-0qNPyulAGDtZmc-3" target="KDnGC-0qNPyulAGDtZmc-16">
          <mxGeometry relative="1" as="geometry" />
        </mxCell>
        <mxCell id="KDnGC-0qNPyulAGDtZmc-3" value="GALLERY" style="rounded=1;whiteSpace=wrap;html=1;" vertex="1" parent="1">
          <mxGeometry x="452.5" y="310" width="120" height="60" as="geometry" />
        </mxCell>
        <mxCell id="KDnGC-0qNPyulAGDtZmc-23" style="edgeStyle=orthogonalEdgeStyle;rounded=0;orthogonalLoop=1;jettySize=auto;html=1;exitX=0.5;exitY=1;exitDx=0;exitDy=0;entryX=0.5;entryY=0;entryDx=0;entryDy=0;" edge="1" parent="1" source="KDnGC-0qNPyulAGDtZmc-5" target="KDnGC-0qNPyulAGDtZmc-19">
          <mxGeometry relative="1" as="geometry" />
        </mxCell>
        <mxCell id="KDnGC-0qNPyulAGDtZmc-5" value="TOUR" style="rounded=1;whiteSpace=wrap;html=1;" vertex="1" parent="1">
          <mxGeometry x="622.5" y="310" width="120" height="60" as="geometry" />
        </mxCell>
        <mxCell id="KDnGC-0qNPyulAGDtZmc-13" value="&lt;font style=&quot;font-size: 18px;&quot;&gt;Mercury Music&lt;/font&gt;" style="rounded=0;whiteSpace=wrap;html=1;" vertex="1" parent="1">
          <mxGeometry x="30" y="30" width="800" height="70" as="geometry" />
        </mxCell>
        <mxCell id="KDnGC-0qNPyulAGDtZmc-16" value="Gallery" style="swimlane;whiteSpace=wrap;html=1;" vertex="1" parent="1">
          <mxGeometry x="447.5" y="390" width="130" height="150" as="geometry" />
        </mxCell>
        <mxCell id="KDnGC-0qNPyulAGDtZmc-17" value="Images" style="whiteSpace=wrap;html=1;" vertex="1" parent="KDnGC-0qNPyulAGDtZmc-16">
          <mxGeometry x="20" y="35" width="90" height="40" as="geometry" />
        </mxCell>
        <mxCell id="KDnGC-0qNPyulAGDtZmc-18" value="Videos" style="whiteSpace=wrap;html=1;" vertex="1" parent="KDnGC-0qNPyulAGDtZmc-16">
          <mxGeometry x="20" y="90" width="90" height="40" as="geometry" />
        </mxCell>
        <mxCell id="KDnGC-0qNPyulAGDtZmc-19" value="Tour dates" style="swimlane;whiteSpace=wrap;html=1;startSize=23;" vertex="1" parent="1">
          <mxGeometry x="617.5" y="390" width="130" height="150" as="geometry" />
        </mxCell>
        <mxCell id="KDnGC-0qNPyulAGDtZmc-31" value="" style="endArrow=classic;html=1;rounded=0;exitX=0;exitY=0.5;exitDx=0;exitDy=0;" edge="1" parent="1" source="KDnGC-0qNPyulAGDtZmc-2" target="KDnGC-0qNPyulAGDtZmc-32">
          <mxGeometry width="50" height="50" relative="1" as="geometry">
            <mxPoint x="372.5" y="470" as="sourcePoint" />
            <mxPoint x="222.5" y="390" as="targetPoint" />
            <Array as="points">
              <mxPoint x="222.5" y="220" />
            </Array>
          </mxGeometry>
        </mxCell>
        <mxCell id="KDnGC-0qNPyulAGDtZmc-32" value="&lt;font style=&quot;font-size: 14px;&quot;&gt;Intro&lt;/font&gt;" style="shape=parallelogram;perimeter=parallelogramPerimeter;whiteSpace=wrap;html=1;fixedSize=1;" vertex="1" parent="1">
          <mxGeometry x="132.5" y="270" width="180" height="60" as="geometry" />
        </mxCell>
        <mxCell id="KDnGC-0qNPyulAGDtZmc-48" style="edgeStyle=orthogonalEdgeStyle;rounded=0;orthogonalLoop=1;jettySize=auto;html=1;exitX=1;exitY=0.5;exitDx=0;exitDy=0;entryX=0;entryY=0.5;entryDx=0;entryDy=0;" edge="1" parent="1" source="KDnGC-0qNPyulAGDtZmc-35" target="KDnGC-0qNPyulAGDtZmc-3">
          <mxGeometry relative="1" as="geometry" />
        </mxCell>
        <mxCell id="KDnGC-0qNPyulAGDtZmc-35" value="&lt;font style=&quot;font-size: 14px;&quot;&gt;New from Gallery / Newsletter&lt;/font&gt;" style="shape=parallelogram;perimeter=parallelogramPerimeter;whiteSpace=wrap;html=1;fixedSize=1;" vertex="1" parent="1">
          <mxGeometry x="132.5" y="350" width="180" height="60" as="geometry" />
        </mxCell>
        <mxCell id="KDnGC-0qNPyulAGDtZmc-36" value="&lt;font style=&quot;font-size: 14px;&quot;&gt;Stats&lt;/font&gt;" style="shape=parallelogram;perimeter=parallelogramPerimeter;whiteSpace=wrap;html=1;fixedSize=1;" vertex="1" parent="1">
          <mxGeometry x="132.5" y="430" width="180" height="60" as="geometry" />
        </mxCell>
        <mxCell id="KDnGC-0qNPyulAGDtZmc-42" style="edgeStyle=orthogonalEdgeStyle;rounded=0;orthogonalLoop=1;jettySize=auto;html=1;exitX=1;exitY=0.5;exitDx=0;exitDy=0;entryX=0.854;entryY=0.001;entryDx=0;entryDy=0;entryPerimeter=0;" edge="1" parent="1" source="KDnGC-0qNPyulAGDtZmc-37" target="KDnGC-0qNPyulAGDtZmc-44">
          <mxGeometry relative="1" as="geometry">
            <mxPoint x="70" y="820" as="targetPoint" />
          </mxGeometry>
        </mxCell>
        <mxCell id="KDnGC-0qNPyulAGDtZmc-37" value="&lt;span style=&quot;font-size: 18px;&quot;&gt;Logo /&amp;nbsp; Navigation Bar&lt;/span&gt;" style="rounded=0;whiteSpace=wrap;html=1;" vertex="1" parent="1">
          <mxGeometry x="210" y="120" width="440" height="30" as="geometry" />
        </mxCell>
        <mxCell id="KDnGC-0qNPyulAGDtZmc-45" style="edgeStyle=orthogonalEdgeStyle;rounded=0;orthogonalLoop=1;jettySize=auto;html=1;exitX=1;exitY=0.5;exitDx=0;exitDy=0;entryX=0.75;entryY=0;entryDx=0;entryDy=0;" edge="1" parent="1" source="KDnGC-0qNPyulAGDtZmc-38" target="KDnGC-0qNPyulAGDtZmc-44">
          <mxGeometry relative="1" as="geometry" />
        </mxCell>
        <mxCell id="KDnGC-0qNPyulAGDtZmc-46" style="edgeStyle=orthogonalEdgeStyle;rounded=0;orthogonalLoop=1;jettySize=auto;html=1;exitX=0;exitY=0.5;exitDx=0;exitDy=0;entryX=0.5;entryY=0;entryDx=0;entryDy=0;" edge="1" parent="1" source="KDnGC-0qNPyulAGDtZmc-38" target="KDnGC-0qNPyulAGDtZmc-47">
          <mxGeometry relative="1" as="geometry">
            <mxPoint x="110" y="820" as="targetPoint" />
          </mxGeometry>
        </mxCell>
        <mxCell id="KDnGC-0qNPyulAGDtZmc-38" value="&lt;span style=&quot;font-size: 18px;&quot;&gt;Footer/&amp;nbsp; Navigation Bar&lt;/span&gt;" style="rounded=0;whiteSpace=wrap;html=1;" vertex="1" parent="1">
          <mxGeometry x="210" y="700" width="440" height="30" as="geometry" />
        </mxCell>
        <mxCell id="KDnGC-0qNPyulAGDtZmc-39" value="&lt;font style=&quot;font-size: 14px;&quot;&gt;Tour Info&lt;/font&gt;" style="shape=parallelogram;perimeter=parallelogramPerimeter;whiteSpace=wrap;html=1;fixedSize=1;" vertex="1" parent="1">
          <mxGeometry x="132.5" y="510" width="180" height="60" as="geometry" />
        </mxCell>
        <mxCell id="KDnGC-0qNPyulAGDtZmc-49" style="edgeStyle=orthogonalEdgeStyle;rounded=0;orthogonalLoop=1;jettySize=auto;html=1;exitX=1;exitY=0.5;exitDx=0;exitDy=0;entryX=1;entryY=0.5;entryDx=0;entryDy=0;" edge="1" parent="1" source="KDnGC-0qNPyulAGDtZmc-41" target="KDnGC-0qNPyulAGDtZmc-5">
          <mxGeometry relative="1" as="geometry">
            <Array as="points">
              <mxPoint x="780" y="630" />
              <mxPoint x="780" y="340" />
            </Array>
          </mxGeometry>
        </mxCell>
        <mxCell id="KDnGC-0qNPyulAGDtZmc-41" value="&lt;font style=&quot;font-size: 14px;&quot;&gt;Streaming Services&lt;/font&gt;" style="shape=parallelogram;perimeter=parallelogramPerimeter;whiteSpace=wrap;html=1;fixedSize=1;" vertex="1" parent="1">
          <mxGeometry x="132.5" y="600" width="180" height="60" as="geometry" />
        </mxCell>
        <mxCell id="KDnGC-0qNPyulAGDtZmc-44" value="&lt;b&gt;&lt;i&gt;Links&lt;/i&gt;&lt;/b&gt;&lt;br&gt;&lt;br&gt;Home&lt;br&gt;Gallery&lt;br&gt;Tour" style="rounded=1;whiteSpace=wrap;html=1;" vertex="1" parent="1">
          <mxGeometry x="700" y="820" width="120" height="150" as="geometry" />
        </mxCell>
        <mxCell id="KDnGC-0qNPyulAGDtZmc-47" value="&lt;b&gt;&lt;i&gt;Links&lt;/i&gt;&lt;/b&gt;&lt;br&gt;&lt;br&gt;Facebook&lt;br&gt;Instagram&lt;br&gt;X (Twitter)&lt;br&gt;TikTok" style="rounded=1;whiteSpace=wrap;html=1;" vertex="1" parent="1">
          <mxGeometry x="50" y="820" width="120" height="150" as="geometry" />
        </mxCell>
      </root>
    </mxGraphModel>
  </diagram>
</mxfile>
